<mxfile host="drawio-plugin" modified="2022-11-28T12:47:29.119Z" agent="5.0 (Macintosh; Intel Mac OS X 10_15_7) AppleWebKit/537.36 (KHTML, like Gecko) Chrome/98.0.4758.102 Safari/537.36" etag="nHT2ujh5pLNIhgJOuZsZ" version="20.5.3" type="embed"><diagram id="0reh9oVDQseq1SiU65Ys" name="第 1 页"><mxGraphModel dx="1609" dy="830" grid="0" gridSize="10" guides="1" tooltips="1" connect="1" arrows="1" fold="1" page="0" pageScale="1" pageWidth="827" pageHeight="1169" math="0" shadow="0"><root><mxCell id="0"/><mxCell id="1" parent="0"/><mxCell id="1S2mNHx5ZayFYOi3u7Dm-7" value="" style="group" parent="1" vertex="1" connectable="0"><mxGeometry x="-274" y="323" width="256" height="130" as="geometry"/></mxCell><mxCell id="1S2mNHx5ZayFYOi3u7Dm-6" value="" style="rounded=1;whiteSpace=wrap;html=1;arcSize=3;" parent="1S2mNHx5ZayFYOi3u7Dm-7" vertex="1"><mxGeometry width="256" height="130" as="geometry"/></mxCell><mxCell id="1S2mNHx5ZayFYOi3u7Dm-1" value="&amp;nbsp; 执行器" style="rounded=1;whiteSpace=wrap;html=1;align=left;fillColor=#fff2cc;strokeColor=#d6b656;" parent="1S2mNHx5ZayFYOi3u7Dm-7" vertex="1"><mxGeometry x="12" y="45" width="229" height="39" as="geometry"/></mxCell><mxCell id="1S2mNHx5ZayFYOi3u7Dm-2" value="串行执行器" style="rounded=1;whiteSpace=wrap;html=1;fillColor=#f8cecc;strokeColor=#b85450;" parent="1S2mNHx5ZayFYOi3u7Dm-7" vertex="1"><mxGeometry x="70" y="51" width="76" height="27" as="geometry"/></mxCell><mxCell id="1S2mNHx5ZayFYOi3u7Dm-3" value="并行执行器" style="rounded=1;whiteSpace=wrap;html=1;fillColor=#ffe6cc;strokeColor=#d79b00;" parent="1S2mNHx5ZayFYOi3u7Dm-7" vertex="1"><mxGeometry x="154" y="51" width="76" height="27" as="geometry"/></mxCell><mxCell id="1S2mNHx5ZayFYOi3u7Dm-4" value="&amp;nbsp;Befor" style="rounded=1;whiteSpace=wrap;html=1;align=left;" parent="1S2mNHx5ZayFYOi3u7Dm-7" vertex="1"><mxGeometry x="12" y="13" width="229" height="24" as="geometry"/></mxCell><mxCell id="1S2mNHx5ZayFYOi3u7Dm-5" value="&amp;nbsp;After" style="rounded=1;whiteSpace=wrap;html=1;align=left;" parent="1S2mNHx5ZayFYOi3u7Dm-7" vertex="1"><mxGeometry x="12" y="90" width="229" height="24" as="geometry"/></mxCell></root></mxGraphModel></diagram></mxfile>